<svg preserveAspectRatio="none" width="100%" height="100%" overflow="visible" style="display: block;" viewBox="0 0 10.5 9" fill="none" xmlns="http://www.w3.org/2000/svg">
<path id="Vector" fill-rule="evenodd" clip-rule="evenodd" d="M0.89625 1.57875C0.89625 1.37143 0.937086 1.16613 1.01643 0.974589C1.09576 0.783046 1.21205 0.609006 1.35866 0.462405C1.50526 0.315805 1.6793 0.199515 1.87084 0.120175C2.06238 0.0408355 2.26768 0 2.475 0C2.68232 0 2.88762 0.0408355 3.07916 0.120175C3.2707 0.199515 3.44474 0.315805 3.59134 0.462405C3.73795 0.609006 3.85424 0.783046 3.93357 0.974589C4.01291 1.16613 4.05375 1.37143 4.05375 1.57875C4.05375 1.99746 3.88742 2.39902 3.59134 2.69509C3.29527 2.99117 2.89371 3.1575 2.475 3.1575C2.05629 3.1575 1.65473 2.99117 1.35866 2.69509C1.06258 2.39902 0.89625 1.99746 0.89625 1.57875ZM6.52125 1.57875C6.52125 1.16004 6.68758 0.758478 6.98366 0.462405C7.27973 0.166332 7.68129 0 8.1 0C8.51871 0 8.92027 0.166332 9.21634 0.462405C9.51242 0.758478 9.67875 1.16004 9.67875 1.57875C9.67875 1.99746 9.51242 2.39902 9.21634 2.69509C8.92027 2.99117 8.51871 3.1575 8.1 3.1575C7.68129 3.1575 7.27973 2.99117 6.98366 2.69509C6.68758 2.39902 6.52125 1.99746 6.52125 1.57875ZM3.67125 3.82875C3.67125 3.41004 3.83758 3.00848 4.13366 2.71241C4.42973 2.41633 4.83129 2.25 5.25 2.25C5.66871 2.25 6.07027 2.41633 6.36634 2.71241C6.66242 3.00848 6.82875 3.41004 6.82875 3.82875C6.82875 4.24746 6.66242 4.64902 6.36634 4.9451C6.07027 5.24117 5.66871 5.4075 5.25 5.4075C4.83129 5.4075 4.42973 5.24117 4.13366 4.9451C3.83758 4.64902 3.67125 4.24746 3.67125 3.82875ZM3 3.6H1.875C1.37772 3.6 0.900806 3.79754 0.549175 4.14917C0.197544 4.50081 0 4.97772 0 5.475V6.375H3V3.6ZM7.5 3.6H8.625C9.12228 3.6 9.59919 3.79754 9.95083 4.14917C10.3025 4.50081 10.5 4.97772 10.5 5.475V6.375H7.5V3.6ZM2.775 7.725C2.775 7.22772 2.97254 6.75081 3.32417 6.39917C3.67581 6.04754 4.15272 5.85 4.65 5.85H5.85C6.34728 5.85 6.82419 6.04754 7.17583 6.39917C7.52746 6.75081 7.725 7.22772 7.725 7.725V9H2.775V7.725Z" fill="var(--fill-0, white)"/>
</svg>
