<svg preserveAspectRatio="none" width="100%" height="100%" overflow="visible" style="display: block;" viewBox="0 0 9.66667 11.6667" fill="none" xmlns="http://www.w3.org/2000/svg">
<path id="Vector" d="M0.833333 9.58333V2.08333C0.833333 1.75181 0.965029 1.43387 1.19945 1.19945C1.43387 0.965029 1.75181 0.833333 2.08333 0.833333H8.33333C8.46594 0.833333 8.59312 0.886012 8.68689 0.97978C8.78066 1.07355 8.83333 1.20073 8.83333 1.33333V10.3333C8.83333 10.4659 8.78066 10.5931 8.68689 10.6869C8.59312 10.7807 8.46594 10.8333 8.33333 10.8333H2.08333C1.75181 10.8333 1.43387 10.7016 1.19945 10.4672C0.965029 10.2328 0.833333 9.91485 0.833333 9.58333ZM0.833333 9.58333C0.833333 9.25181 0.965029 8.93387 1.19945 8.69945C1.43387 8.46503 1.75181 8.33333 2.08333 8.33333H8.83333" stroke="var(--stroke-0, white)" stroke-width="1.66667" stroke-linecap="round" stroke-linejoin="round"/>
</svg>
