<svg preserveAspectRatio="none" width="100%" height="100%" overflow="visible" style="display: block;" viewBox="0 0 50 30" fill="none" xmlns="http://www.w3.org/2000/svg">
<path id="Vector" d="M34.0909 0H21.5909V10H0V22.5H4.54545C4.54545 24.4891 5.2638 26.3968 6.54245 27.8033C7.82111 29.2098 9.55534 30 11.3636 30C13.1719 30 14.9062 29.2098 16.1848 27.8033C17.4635 26.3968 18.1818 24.4891 18.1818 22.5H31.8182C31.8182 24.4891 32.5365 26.3968 33.8152 27.8033C35.0938 29.2098 36.8281 30 38.6364 30C40.4447 30 42.1789 29.2098 43.4575 27.8033C44.7362 26.3968 45.4545 24.4891 45.4545 22.5H50V15C50 12.225 47.9773 10 45.4545 10H40.9091L34.0909 0ZM25 3.75H32.9545L37.4091 10H25V3.75ZM11.3636 18.75C12.2678 18.75 13.1349 19.1451 13.7742 19.8483C14.4136 20.5516 14.7727 21.5054 14.7727 22.5C14.7727 23.4946 14.4136 24.4484 13.7742 25.1516C13.1349 25.8549 12.2678 26.25 11.3636 26.25C10.4595 26.25 9.59237 25.8549 8.95304 25.1516C8.31372 24.4484 7.95455 23.4946 7.95455 22.5C7.95455 21.5054 8.31372 20.5516 8.95304 19.8483C9.59237 19.1451 10.4595 18.75 11.3636 18.75ZM38.6364 18.75C39.5405 18.75 40.4076 19.1451 41.047 19.8483C41.6863 20.5516 42.0455 21.5054 42.0455 22.5C42.0455 23.4946 41.6863 24.4484 41.047 25.1516C40.4076 25.8549 39.5405 26.25 38.6364 26.25C37.7322 26.25 36.8651 25.8549 36.2258 25.1516C35.5864 24.4484 35.2273 23.4946 35.2273 22.5C35.2273 21.5054 35.5864 20.5516 36.2258 19.8483C36.8651 19.1451 37.7322 18.75 38.6364 18.75Z" fill="var(--fill-0, #757575)"/>
</svg>
