<svg preserveAspectRatio="none" width="100%" height="100%" overflow="visible" style="display: block;" viewBox="0 0 11.25 11.25" fill="none" xmlns="http://www.w3.org/2000/svg">
<g id="Group">
<path id="Vector" d="M5.625 10.625C8.38642 10.625 10.625 8.38642 10.625 5.625C10.625 2.86358 8.38642 0.625 5.625 0.625C2.86358 0.625 0.625 2.86358 0.625 5.625C0.625 8.38642 2.86358 10.625 5.625 10.625Z" stroke="var(--stroke-0, white)" stroke-width="1.25"/>
<path id="Vector_2" d="M5.625 1.875C6.36668 1.875 7.0917 2.09493 7.70839 2.50699C8.32507 2.91904 8.80572 3.50471 9.08955 4.18994C9.37338 4.87516 9.44764 5.62916 9.30295 6.35659C9.15825 7.08402 8.8011 7.7522 8.27665 8.27665C7.7522 8.8011 7.08402 9.15825 6.35659 9.30295C5.62916 9.44764 4.87516 9.37338 4.18994 9.08955C3.50471 8.80572 2.91904 8.32507 2.50699 7.70839C2.09493 7.0917 1.875 6.36668 1.875 5.625H5.625V1.875Z" fill="var(--fill-0, white)"/>
</g>
</svg>
